<svg xmlns="http://www.w3.org/2000/svg" viewBox="0 0 412.82 139.6"><defs><style>.cls-1{fill:#fff;}.cls-2{opacity:0.4;}.cls-3{fill:#ff0036;}</style></defs><g id="Camada_2" data-name="Camada 2"><g id="Layer_1" data-name="Layer 1"><path class="cls-1" d="M162.7,31h32.86V42H175.48v8.51h18.86V61.12H175.48V73.59H162.7Z"/><path class="cls-1" d="M205.72,69.67q-5.24-4.85-5.24-13.72V31h12.78V55.7A7.5,7.5,0,0,0,215.08,61c1.22,1.32,3.09,2,5.6,2s4.38-.65,5.6-2a7.46,7.46,0,0,0,1.82-5.27V31h12.78V56q0,8.88-5.23,13.72t-15,4.83Q210.95,74.5,205.72,69.67Z"/><path class="cls-1" d="M246.6,31h32.85V41.65H258.77v5.17h19.47V57.16H258.77v5.78h21.29V73.59H246.6Z"/><path class="cls-1" d="M285.41,31h21.42q7.37,0,11.35,3.65t4,11.14a14.06,14.06,0,0,1-2.55,8.76,12.84,12.84,0,0,1-7.24,4.56L324,73.59H308.84l-9.43-12.9h-1.52v12.9H285.41Zm19.65,19.59a5.17,5.17,0,0,0,3.44-1,4.13,4.13,0,0,0,1.19-3.32,4.18,4.18,0,0,0-1.19-3.22A4.88,4.88,0,0,0,305.06,42h-7.17v8.63Z"/><path class="cls-1" d="M327.33,55.16l23.67-11V42.56H328.06V31h35.41V49.44l-23.67,11V62h24V73.59h-36.5Z"/><path class="cls-1" d="M378.75,31h21l13.08,42.59h-13.5l-1.71-6.2H380.88l-1.7,6.2H365.67Zm16.12,26.65-5-17.82H388.3l-4.8,17.82Z"/><path class="cls-1" d="M165.34,113.76a8.82,8.82,0,0,1-2.64-6.88h4.21a5.17,5.17,0,0,0,1.54,4.05,6.44,6.44,0,0,0,4.47,1.39,6.56,6.56,0,0,0,3.77-.95,3,3,0,0,0,1.4-2.65,2.36,2.36,0,0,0-.89-1.9A8.88,8.88,0,0,0,174,105.5l-4.56-1.2a10.64,10.64,0,0,1-4.64-2.34,5.53,5.53,0,0,1-1.59-4.21A6.4,6.4,0,0,1,164.35,94a7.08,7.08,0,0,1,3.2-2.51,12.29,12.29,0,0,1,4.84-.89q4.74,0,7.23,2.18a7.72,7.72,0,0,1,2.5,6.17h-4.28a4.15,4.15,0,0,0-1.38-3.36,6.16,6.16,0,0,0-4.07-1.17,7,7,0,0,0-3.59.8,2.49,2.49,0,0,0-1.32,2.24,2.43,2.43,0,0,0,.92,2,6.44,6.44,0,0,0,2.72,1.2l4.6,1.17a11.11,11.11,0,0,1,5,2.31,5.79,5.79,0,0,1,1.7,4.51,6.69,6.69,0,0,1-1.17,3.87,7.71,7.71,0,0,1-3.32,2.69,12.09,12.09,0,0,1-5,1Q168,116.14,165.34,113.76Z"/><path class="cls-1" d="M215,94.89h-8.21V91h20.69v3.89h-8.24v20.86H215Z"/><path class="cls-1" d="M255.83,113.67q-2.72-2.48-2.71-7.11V91h4.25v15.52a5.53,5.53,0,0,0,1.55,4.21,6.55,6.55,0,0,0,4.67,1.49,6.39,6.39,0,0,0,4.65-1.51,5.56,5.56,0,0,0,1.54-4.19V91H274v15.56a9.36,9.36,0,0,1-2.62,7q-2.61,2.57-7.81,2.56T255.83,113.67Z"/><path class="cls-1" d="M300.68,91h9.9a13.31,13.31,0,0,1,6.25,1.38,9.6,9.6,0,0,1,4.05,4,12.58,12.58,0,0,1,1.41,6.1v1.84a12.63,12.63,0,0,1-1.41,6.1,9.57,9.57,0,0,1-4.05,4,13.31,13.31,0,0,1-6.25,1.38h-9.9Zm9.55,20.83a7.69,7.69,0,0,0,5.69-2,7.5,7.5,0,0,0,2-5.55v-1.84a7.5,7.5,0,0,0-2-5.55,7.69,7.69,0,0,0-5.69-2h-5.3v16.9Z"/><path class="cls-1" d="M346.87,111.86h5.55v-17h-5.55V91h15.27v3.89h-5.51v17h5.51v3.89H346.87Z"/><path class="cls-1" d="M392.2,114.76a9.63,9.63,0,0,1-4.07-3.92,12.3,12.3,0,0,1-1.41-6V102a12.33,12.33,0,0,1,1.41-6A9.61,9.61,0,0,1,392.2,92a13.3,13.3,0,0,1,6.22-1.38A13.63,13.63,0,0,1,404.68,92a9.48,9.48,0,0,1,4.07,3.93,12.33,12.33,0,0,1,1.41,6v2.86a12.33,12.33,0,0,1-1.41,6,9.56,9.56,0,0,1-4.07,3.94,14.8,14.8,0,0,1-12.48,0Zm.81-4.56a7.24,7.24,0,0,0,5.41,2,7.35,7.35,0,0,0,5.45-1.93,7.51,7.51,0,0,0,1.91-5.5V102a7.39,7.39,0,0,0-1.93-5.45,8.59,8.59,0,0,0-10.85,0,7.5,7.5,0,0,0-1.9,5.5v2.73A7.44,7.44,0,0,0,393,110.2Z"/><g class="cls-2"><polygon class="cls-3" points="31.94 36.63 94.85 64.87 76.11 92.42 12.21 61.22 31.94 36.63"/><polygon class="cls-3" points="52.4 11.03 98.05 29.88 37.7 29.58 52.4 11.03"/><polygon class="cls-3" points="113.78 37.01 97.3 61.1 43.1 36.26 113.78 37.01"/><polygon class="cls-3" points="116.01 57.47 115.7 43.45 90.73 80.81 116.01 57.47"/><polygon class="cls-3" points="116.56 76.58 116.33 60.58 85.45 107.86 116.56 76.58"/><polygon class="cls-3" points="48.38 104.25 83.07 129.76 112.41 83.89 80.2 115.99 48.38 104.25"/><polygon class="cls-3" points="26.52 100.06 69.59 122.6 20.75 86.74 26.52 100.06"/><polygon class="cls-3" points="19.21 82.73 53.83 100.27 13.73 69.89 19.21 82.73"/><polygon class="cls-3" points="107.56 71.35 80.07 113.5 28.91 76.28 76.76 98.47 107.56 71.35"/></g><path class="cls-3" d="M51,0h-.28L0,62.19l19.71,42.65,65,34.76H85L122.37,80l2.22-2.18.12-48.49Zm70,36.57V51.81L118.55,50V56.5l.77.45v.18L87.91,86l-.19-.2,33-49.18ZM77.35,95.7h-.27L12.81,64.07v-.26L97.3,66l0,.3ZM78,114h-.19L26.52,76.47l.06-.19,48.67,24.2Zm41.13-80.11L101,60.78,37.7,32.71l81.46,1Zm-87.62-6L43.41,13.32,37.72,25.89l9.09-11.33,3.73-8.09,20.77,8.59-6.12-4.65,45.88,18.34v.31l-79.53-.91ZM6.41,58.94,27.49,33l.15,0L90.08,61v.12L6.41,59.16ZM14,77.29l-1,2.24h-.18L8.18,69l.16-.12,48.2,35.26,0,.1L15.17,83.13l0-.17.86-1Zm45.61,44.13-30-15.82v-.26h2.53l-7.64-3.94-1.78-4.32h-.17l-.87,2H21.5s-3.65-8-3.65-8.09l.32,0,41.45,30.35ZM36.5,99l43.06,22.17,2.3,11Zm46.28,16-3-16.18,34.74-32.72.18.19L83.08,115Zm22-11.08h-.16l-2.45-1.4-3.53,5.57h3.16l.19.19-15.5,24.53h-.28L83.69,120v-.19l30.54-31.41h.28Zm16.4-30.58H121l-2.12-1.6v5.59l-1.86,1.81h1.65v.23l-27.63,28L121,61.1l.17,0Z"/></g></g></svg>